<svg width="106" height="103" viewBox="0 0 106 103" xmlns="http://www.w3.org/2000/svg">
    <defs><filter id="sketchy-B"><feTurbulence type="fractalNoise" baseFrequency="0.7" numOctaves="1" result="turbulence"/><feDisplacementMap in="SourceGraphic" in2="turbulence" scale="1.5" xChannelSelector="R" yChannelSelector="G"/></filter></defs>
    <path d="M96.6 63.3C103.4 46.5 82.6 14.1 57.4 15.3C32.2 16.5 6.2 38.1 11 63.3C15.8 88.5 39.8 101.7 63.8 95.7C87.8 89.7 89.8 80.1 96.6 63.3Z" fill="#2A9D8F" opacity="0.6" filter="url(#sketchy-B)"/>
    <g filter="url(#sketchy-B)">
        <!-- Monitor -->
        <rect x="20" y="45" width="66" height="40" fill="#ffffff" stroke="#264653" stroke-width="1.5"/>
        <path d="M35 85 l36 0" stroke="#264653" stroke-width="2"/>
        <path d="M53 85 v 10" stroke="#264653" stroke-width="2"/>
        
        <!-- Hardware: Refined Microprocessor -->
        <g transform="translate(28 55)" stroke="#264653" stroke-width="1" fill="#ffffff">
            <rect x="0" y="0" width="18" height="18" stroke-width="1.5"/>
            <path d="M0 3 h-2 M0 7 h-2 M0 11 h-2 M0 15 h-2"/>
            <path d="M18 3 h2 M18 7 h2 M18 11 h2 M18 15 h2"/>
            <path d="M3 0 v-2 M7 0 v-2 M11 0 v-2 M15 0 v-2"/>
            <path d="M3 18 v2 M7 18 v2 M11 18 v2 M15 18 v2"/>
        </g>

        <!-- Software: Code Brackets -->
        <g transform="translate(55 58)" stroke="#264653" stroke-width="2.5" fill="none" stroke-linecap="round">
            <path d="M2 0 l6 6 l-6 6"/>
            <path d="M20 0 l-6 6 l6 6"/>
        </g>
        
        <!-- Network: Wifi Signal (Moved Above) -->
        <g transform="translate(53 25)" stroke="#264653" stroke-width="2" fill="none" stroke-linecap="round">
             <path d="M-10 0 C -5 -5, 5 -5, 10 0"/>
             <path d="M-6 4 C -3 1, 3 1, 6 4"/>
             <path d="M-2 8 C -1 7, 1 7, 2 8"/>
        </g>
    </g>
</svg>